{
	"asset":{
		"generator":"Khronos glTF Blender I/O v3.6.28",
		"version":"2.0"
	},
	"scene":0,
	"scenes":[
		{
			"name":"Scene",
			"nodes":[
				0
			]
		}
	],
	"nodes":[
		{
			"mesh":0,
			"name":"BeerBottle",
			"rotation":[
				-0.70710688829422,
				0,
				0,
				0.7071066498756409
			]
		}
	],
	"materials":[
		{
			"doubleSided":true,
			"name":"LabelColor",
			"pbrMetallicRoughness":{
				"baseColorFactor":[
					0.3586980104446411,
					0.6399999856948853,
					0.15062500536441803,
					1
				],
				"metallicFactor":0,
				"roughnessFactor":0.35194361209869385
			}
		},
		{
			"alphaMode":"BLEND",
			"doubleSided":true,
			"name":"BottleColor",
			"pbrMetallicRoughness":{
				"baseColorFactor":[
					0.6399999856948853,
					0.17124700546264648,
					0.03017299994826317,
					0.9590319991111755
				],
				"metallicFactor":0,
				"roughnessFactor":0.8153582215309143
			}
		}
	],
	"meshes":[
		{
			"name":"Object_1",
			"primitives":[
				{
					"attributes":{
						"POSITION":0,
						"NORMAL":1,
						"TEXCOORD_0":2
					},
					"indices":3,
					"material":0
				},
				{
					"attributes":{
						"POSITION":4,
						"NORMAL":5,
						"TEXCOORD_0":6
					},
					"indices":7,
					"material":1
				}
			]
		}
	],
	"accessors":[
		{
			"bufferView":0,
			"componentType":5126,
			"count":92,
			"max":[
				0.6256359815597534,
				1.2494020462036133,
				4.339417934417725
			],
			"min":[
				-0.5864819884300232,
				-0.2863830029964447,
				-0.7482380270957947
			],
			"type":"VEC3"
		},
		{
			"bufferView":1,
			"componentType":5126,
			"count":92,
			"type":"VEC3"
		},
		{
			"bufferView":2,
			"componentType":5126,
			"count":92,
			"type":"VEC2"
		},
		{
			"bufferView":3,
			"componentType":5123,
			"count":150,
			"type":"SCALAR"
		},
		{
			"bufferView":4,
			"componentType":5126,
			"count":562,
			"max":[
				0.6603919863700867,
				1.4029510021209717,
				4.181490898132324
			],
			"min":[
				-1.1824920177459717,
				-0.4399319887161255,
				-1.7827379703521729
			],
			"type":"VEC3"
		},
		{
			"bufferView":5,
			"componentType":5126,
			"count":562,
			"type":"VEC3"
		},
		{
			"bufferView":6,
			"componentType":5126,
			"count":562,
			"type":"VEC2"
		},
		{
			"bufferView":7,
			"componentType":5123,
			"count":846,
			"type":"SCALAR"
		}
	],
	"bufferViews":[
		{
			"buffer":0,
			"byteLength":1104,
			"byteOffset":0,
			"target":34962
		},
		{
			"buffer":0,
			"byteLength":1104,
			"byteOffset":1104,
			"target":34962
		},
		{
			"buffer":0,
			"byteLength":736,
			"byteOffset":2208,
			"target":34962
		},
		{
			"buffer":0,
			"byteLength":300,
			"byteOffset":2944,
			"target":34963
		},
		{
			"buffer":0,
			"byteLength":6744,
			"byteOffset":3244,
			"target":34962
		},
		{
			"buffer":0,
			"byteLength":6744,
			"byteOffset":9988,
			"target":34962
		},
		{
			"buffer":0,
			"byteLength":4496,
			"byteOffset":16732,
			"target":34962
		},
		{
			"buffer":0,
			"byteLength":1692,
			"byteOffset":21228,
			"target":34963
		}
	],
	"buffers":[
		{
			"byteLength":22920,
			"uri":"data:application/octet-stream;base64,"
		}
	]
}
