{
	"asset":{
		"generator":"Khronos glTF Blender I/O v3.6.28",
		"version":"2.0"
	},
	"extensionsUsed":[
		"KHR_materials_specular",
		"KHR_materials_ior"
	],
	"scene":0,
	"scenes":[
		{
			"name":"Scene",
			"nodes":[
				0,
				1,
				2,
				3,
				4
			]
		}
	],
	"nodes":[
		{
			"name":"Ref",
			"rotation":[
				0.4661809802055359,
				0.5324493646621704,
				-0.5250668525695801,
				0.47273436188697815
			],
			"translation":[
				-16.006908416748047,
				6.358619689941406,
				15.858207702636719
			]
		},
		{
			"mesh":0,
			"name":"Cloud_1",
			"scale":[
				4.328929424285889,
				4.328929424285889,
				4.783946990966797
			],
			"translation":[
				0,
				31.368791580200195,
				-11.767077445983887
			]
		},
		{
			"mesh":1,
			"name":"Cloud_2",
			"scale":[
				4.804304599761963,
				4.804304599761963,
				5.167212963104248
			],
			"translation":[
				0,
				29.465503692626953,
				7.518354892730713
			]
		},
		{
			"mesh":2,
			"name":"Cloud_3",
			"scale":[
				3.7894296646118164,
				3.379314661026001,
				3.8323442935943604
			],
			"translation":[
				0,
				32.21318817138672,
				0
			]
		},
		{
			"mesh":3,
			"name":"Cloud_4",
			"scale":[
				3.6472020149230957,
				3.6472020149230957,
				3.6472020149230957
			],
			"translation":[
				4.756795883178711,
				30.56636619567871,
				-5.594278812408447
			]
		}
	],
	"materials":[
		{
			"doubleSided":true,
			"extensions":{
				"KHR_materials_specular":{
					"specularColorFactor":[
						0,
						0,
						0
					]
				},
				"KHR_materials_ior":{
					"ior":1.4500000476837158
				}
			},
			"name":"Cloud_Mat",
			"pbrMetallicRoughness":{
				"baseColorFactor":[
					0.800000011920929,
					0.800000011920929,
					0.800000011920929,
					1
				],
				"metallicFactor":0,
				"roughnessFactor":0
			}
		}
	],
	"meshes":[
		{
			"name":"Icosphere.020",
			"primitives":[
				{
					"attributes":{
						"POSITION":0,
						"NORMAL":1,
						"TEXCOORD_0":2
					},
					"indices":3,
					"material":0
				}
			]
		},
		{
			"name":"Icosphere.025",
			"primitives":[
				{
					"attributes":{
						"POSITION":4,
						"NORMAL":5,
						"TEXCOORD_0":6
					},
					"indices":7,
					"material":0
				}
			]
		},
		{
			"name":"Icosphere.037",
			"primitives":[
				{
					"attributes":{
						"POSITION":8,
						"NORMAL":9,
						"TEXCOORD_0":10
					},
					"indices":11,
					"material":0
				}
			]
		},
		{
			"name":"Icosphere.044",
			"primitives":[
				{
					"attributes":{
						"POSITION":12,
						"NORMAL":13,
						"TEXCOORD_0":14
					},
					"indices":15,
					"material":0
				}
			]
		}
	],
	"accessors":[
		{
			"bufferView":0,
			"componentType":5126,
			"count":1200,
			"max":[
				0.9510578513145447,
				1,
				2.334049701690674
			],
			"min":[
				-1.129753828048706,
				-1.148651123046875,
				-1.8534061908721924
			],
			"type":"VEC3"
		},
		{
			"bufferView":1,
			"componentType":5126,
			"count":1200,
			"type":"VEC3"
		},
		{
			"bufferView":2,
			"componentType":5126,
			"count":1200,
			"type":"VEC2"
		},
		{
			"bufferView":3,
			"componentType":5123,
			"count":1200,
			"type":"SCALAR"
		},
		{
			"bufferView":4,
			"componentType":5126,
			"count":1440,
			"max":[
				0.9510578513145447,
				1.3620171546936035,
				2.257687568664551
			],
			"min":[
				-0.9510578513145447,
				-1.136878252029419,
				-1.9160609245300293
			],
			"type":"VEC3"
		},
		{
			"bufferView":5,
			"componentType":5126,
			"count":1440,
			"type":"VEC3"
		},
		{
			"bufferView":6,
			"componentType":5126,
			"count":1440,
			"type":"VEC2"
		},
		{
			"bufferView":7,
			"componentType":5123,
			"count":1440,
			"type":"SCALAR"
		},
		{
			"bufferView":8,
			"componentType":5126,
			"count":1776,
			"max":[
				1.105211853981018,
				2.5475261211395264,
				3.3151280879974365
			],
			"min":[
				-1.178500771522522,
				-1.2020741701126099,
				-4.166985988616943
			],
			"type":"VEC3"
		},
		{
			"bufferView":9,
			"componentType":5126,
			"count":1776,
			"type":"VEC3"
		},
		{
			"bufferView":10,
			"componentType":5126,
			"count":1776,
			"type":"VEC2"
		},
		{
			"bufferView":11,
			"componentType":5123,
			"count":1776,
			"type":"SCALAR"
		},
		{
			"bufferView":12,
			"componentType":5126,
			"count":952,
			"max":[
				0.9922817945480347,
				1.9548125267028809,
				2.868117570877075
			],
			"min":[
				-1.2262996435165405,
				-1.290529727935791,
				-3.290966749191284
			],
			"type":"VEC3"
		},
		{
			"bufferView":13,
			"componentType":5126,
			"count":952,
			"type":"VEC3"
		},
		{
			"bufferView":14,
			"componentType":5126,
			"count":952,
			"type":"VEC2"
		},
		{
			"bufferView":15,
			"componentType":5123,
			"count":954,
			"type":"SCALAR"
		}
	],
	"bufferViews":[
		{
			"buffer":0,
			"byteLength":14400,
			"byteOffset":0,
			"target":34962
		},
		{
			"buffer":0,
			"byteLength":14400,
			"byteOffset":14400,
			"target":34962
		},
		{
			"buffer":0,
			"byteLength":9600,
			"byteOffset":28800,
			"target":34962
		},
		{
			"buffer":0,
			"byteLength":2400,
			"byteOffset":38400,
			"target":34963
		},
		{
			"buffer":0,
			"byteLength":17280,
			"byteOffset":40800,
			"target":34962
		},
		{
			"buffer":0,
			"byteLength":17280,
			"byteOffset":58080,
			"target":34962
		},
		{
			"buffer":0,
			"byteLength":11520,
			"byteOffset":75360,
			"target":34962
		},
		{
			"buffer":0,
			"byteLength":2880,
			"byteOffset":86880,
			"target":34963
		},
		{
			"buffer":0,
			"byteLength":21312,
			"byteOffset":89760,
			"target":34962
		},
		{
			"buffer":0,
			"byteLength":21312,
			"byteOffset":111072,
			"target":34962
		},
		{
			"buffer":0,
			"byteLength":14208,
			"byteOffset":132384,
			"target":34962
		},
		{
			"buffer":0,
			"byteLength":3552,
			"byteOffset":146592,
			"target":34963
		},
		{
			"buffer":0,
			"byteLength":11424,
			"byteOffset":150144,
			"target":34962
		},
		{
			"buffer":0,
			"byteLength":11424,
			"byteOffset":161568,
			"target":34962
		},
		{
			"buffer":0,
			"byteLength":7616,
			"byteOffset":172992,
			"target":34962
		},
		{
			"buffer":0,
			"byteLength":1908,
			"byteOffset":180608,
			"target":34963
		}
	],
	"buffers":[
		{
			"byteLength":182516,
			"uri":"data:application/octet-stream;base64,"
		}
	]
}
