{
	"asset":{
		"generator":"Khronos glTF Blender I/O v3.6.28",
		"version":"2.0"
	},
	"scene":0,
	"scenes":[
		{
			"name":"Scene",
			"nodes":[
				38
			]
		}
	],
	"nodes":[
		{
			"mesh":0,
			"name":"Body_Plane_0"
		},
		{
			"children":[
				0
			],
			"name":"Object_37",
			"rotation":[
				0.70710688829422,
				0,
				0,
				0.7071066498756409
			],
			"translation":[
				0.04112434387207031,
				0.10359635949134827,
				-0.40554407238960266
			]
		},
		{
			"children":[
				1
			],
			"name":"Body",
			"rotation":[
				-0.70710688829422,
				0,
				0,
				0.7071066498756409
			],
			"translation":[
				-0.04112434387207031,
				-0.012721359729766846,
				0.10359634459018707
			]
		},
		{
			"mesh":1,
			"name":"Elevator_Plane_0"
		},
		{
			"children":[
				3
			],
			"name":"Object_4",
			"translation":[
				1.137300968170166,
				-0.3202049136161804,
				-0.049999985843896866
			]
		},
		{
			"children":[
				4
			],
			"name":"Elevator",
			"rotation":[
				-0.70710688829422,
				0,
				0,
				0.7071066498756409
			],
			"translation":[
				0,
				-0.18605977296829224,
				-3.359835624694824
			]
		},
		{
			"mesh":2,
			"name":"FrontWheel_Plane_0"
		},
		{
			"children":[
				6
			],
			"name":"Object_25",
			"rotation":[
				0.4999999403953552,
				-0.5000000596046448,
				-0.5000000596046448,
				0.4999999403953552
			],
			"translation":[
				0.02169175259768963,
				0,
				0
			]
		},
		{
			"children":[
				7
			],
			"name":"FrontWheel",
			"rotation":[
				-0.70710688829422,
				0,
				0,
				0.7071066498756409
			],
			"translation":[
				0,
				-1.219903826713562,
				3.029604911804199
			]
		},
		{
			"mesh":3,
			"name":"LeftAileron_Plane_0"
		},
		{
			"children":[
				9
			],
			"name":"Object_13",
			"rotation":[
				0.704416036605835,
				0.06162844970822334,
				0.06162840500473976,
				0.704416036605835
			],
			"translation":[
				-4.220078945159912,
				0.22653669118881226,
				-1.0351451635360718
			]
		},
		{
			"children":[
				10
			],
			"name":"LeftAileron",
			"rotation":[
				-0.704416036605835,
				-0.061628423631191254,
				-0.06162842735648155,
				0.704416036605835
			],
			"translation":[
				4.116629600524902,
				0.6168797612190247,
				0.9559043049812317
			]
		},
		{
			"mesh":4,
			"name":"LeftFlap_Plane_0"
		},
		{
			"children":[
				12
			],
			"name":"Object_34",
			"rotation":[
				0.70710688829422,
				0,
				0,
				0.7071066498756409
			],
			"translation":[
				-1.756398320198059,
				0.7617939710617065,
				-1.0172677040100098
			]
		},
		{
			"children":[
				13
			],
			"name":"LeftFlap",
			"rotation":[
				-0.70710688829422,
				0,
				0,
				0.7071066498756409
			],
			"translation":[
				1.7563985586166382,
				0.5990023016929626,
				0.761793851852417
			]
		},
		{
			"mesh":5,
			"name":"LeftWheel_Plane_0"
		},
		{
			"children":[
				15
			],
			"name":"Object_31",
			"rotation":[
				0.4999999403953552,
				-0.5000000596046448,
				-0.5000000596046448,
				0.4999999403953552
			],
			"translation":[
				0.02169167995452881,
				0,
				0
			]
		},
		{
			"children":[
				16
			],
			"name":"LeftWheel",
			"rotation":[
				-0.70710688829422,
				0,
				0,
				0.7071066498756409
			],
			"translation":[
				1.2269999980926514,
				-1.2199037075042725,
				1.3674896955490112
			]
		},
		{
			"mesh":6,
			"name":"Propeller_Plane_0"
		},
		{
			"children":[
				18
			],
			"name":"Object_7",
			"rotation":[
				0.70710688829422,
				0,
				0,
				0.7071066498756409
			],
			"translation":[
				0,
				-1.3270020484924316,
				0.02031390182673931
			]
		},
		{
			"children":[
				19
			],
			"name":"Propeller",
			"rotation":[
				-0.70710688829422,
				0,
				0,
				0.7071066498756409
			],
			"translation":[
				0,
				-0.1940000057220459,
				4.136754989624023
			]
		},
		{
			"mesh":7,
			"name":"RightAileron_Plane_0"
		},
		{
			"children":[
				21
			],
			"name":"Object_16",
			"rotation":[
				0.704416036605835,
				-0.06162844970822334,
				-0.06162840500473976,
				0.704416036605835
			],
			"translation":[
				4.328639984130859,
				0.19879083335399628,
				-1.035524606704712
			]
		},
		{
			"children":[
				22
			],
			"name":"RightAileron",
			"rotation":[
				-0.704416036605835,
				0.061628423631191254,
				0.06162842735648155,
				0.704416036605835
			],
			"translation":[
				-4.228359222412109,
				0.6172592043876648,
				0.947431206703186
			]
		},
		{
			"mesh":8,
			"name":"RightFlap_Plane_0"
		},
		{
			"children":[
				24
			],
			"name":"Object_22",
			"rotation":[
				0.70710688829422,
				0,
				0,
				0.7071066498756409
			],
			"translation":[
				1.8378591537475586,
				0.7620001435279846,
				-1.017410397529602
			]
		},
		{
			"children":[
				25
			],
			"name":"RightFlap",
			"rotation":[
				-0.70710688829422,
				0,
				0,
				0.7071066498756409
			],
			"translation":[
				-1.837859034538269,
				0.5991449952125549,
				0.7620000243186951
			]
		},
		{
			"mesh":9,
			"name":"RightWheel_Plane_0"
		},
		{
			"children":[
				27
			],
			"name":"Object_28",
			"rotation":[
				0.4999999403953552,
				-0.5000000596046448,
				-0.5000000596046448,
				0.4999999403953552
			],
			"translation":[
				0.02169191837310791,
				0,
				0
			]
		},
		{
			"children":[
				28
			],
			"name":"RightWheel",
			"rotation":[
				-0.70710688829422,
				0,
				0,
				0.7071066498756409
			],
			"translation":[
				-1.2266228199005127,
				-1.2199037075042725,
				1.3674896955490112
			]
		},
		{
			"mesh":10,
			"name":"Rudder_Plane_0"
		},
		{
			"children":[
				30
			],
			"name":"Object_10",
			"rotation":[
				0.70710688829422,
				0,
				0,
				0.7071066498756409
			],
			"translation":[
				0,
				-3.42912220954895,
				-1.0017259120941162
			]
		},
		{
			"children":[
				31
			],
			"name":"Rudder",
			"rotation":[
				-0.70710688829422,
				0,
				0,
				0.7071066498756409
			],
			"translation":[
				0,
				0.5834605097770691,
				-3.42912220954895
			]
		},
		{
			"mesh":11,
			"name":"Stabilizer_Plane_0"
		},
		{
			"children":[
				33
			],
			"name":"Object_19",
			"translation":[
				1.137300729751587,
				0.11533458530902863,
				-0.05000000074505806
			]
		},
		{
			"children":[
				34
			],
			"name":"Stabilizer",
			"rotation":[
				-0.70710688829422,
				0,
				0,
				0.7071066498756409
			],
			"translation":[
				0,
				-0.18605974316596985,
				-2.9242963790893555
			]
		},
		{
			"children":[
				2,
				5,
				8,
				11,
				14,
				17,
				20,
				23,
				26,
				29,
				32,
				35
			],
			"name":"RootNode"
		},
		{
			"children":[
				36
			],
			"name":"LowPolyPlane01.FBX",
			"rotation":[
				0.70710688829422,
				0,
				0,
				0.7071066498756409
			]
		},
		{
			"children":[
				37
			],
			"name":"Sketchfab_model",
			"rotation":[
				-0.70710688829422,
				0,
				0,
				0.7071066498756409
			]
		}
	],
	"animations":[
		{
			"channels":[
				{
					"sampler":0,
					"target":{
						"node":3,
						"path":"rotation"
					}
				}
			],
			"name":"Elevator_Rotate_40_Action",
			"samplers":[
				{
					"input":43,
					"interpolation":"LINEAR",
					"output":44
				}
			]
		},
		{
			"channels":[
				{
					"sampler":0,
					"target":{
						"node":18,
						"path":"rotation"
					}
				}
			],
			"name":"Propeller_Plane_0_Action",
			"samplers":[
				{
					"input":43,
					"interpolation":"LINEAR",
					"output":45
				}
			]
		}
	],
	"materials":[
		{
			"doubleSided":true,
			"name":"Plane",
			"pbrMetallicRoughness":{
				"baseColorTexture":{
					"index":0
				},
				"metallicFactor":0,
				"roughnessFactor":0.6000000238418579
			}
		}
	],
	"meshes":[
		{
			"name":"Body_Plane_0",
			"primitives":[
				{
					"attributes":{
						"POSITION":0,
						"NORMAL":1,
						"TEXCOORD_0":2
					},
					"indices":3,
					"material":0
				}
			]
		},
		{
			"name":"Elevator_Plane_0",
			"primitives":[
				{
					"attributes":{
						"POSITION":4,
						"NORMAL":5,
						"TEXCOORD_0":6
					},
					"indices":7,
					"material":0
				}
			]
		},
		{
			"name":"FrontWheel_Plane_0",
			"primitives":[
				{
					"attributes":{
						"POSITION":8,
						"NORMAL":9,
						"TEXCOORD_0":10
					},
					"indices":11,
					"material":0
				}
			]
		},
		{
			"name":"LeftAileron_Plane_0",
			"primitives":[
				{
					"attributes":{
						"POSITION":12,
						"NORMAL":13,
						"TEXCOORD_0":14
					},
					"indices":15,
					"material":0
				}
			]
		},
		{
			"name":"LeftFlap_Plane_0",
			"primitives":[
				{
					"attributes":{
						"POSITION":16,
						"NORMAL":17,
						"TEXCOORD_0":18
					},
					"indices":15,
					"material":0
				}
			]
		},
		{
			"name":"LeftWheel_Plane_0",
			"primitives":[
				{
					"attributes":{
						"POSITION":19,
						"NORMAL":20,
						"TEXCOORD_0":21
					},
					"indices":11,
					"material":0
				}
			]
		},
		{
			"name":"Propeller_Plane_0",
			"primitives":[
				{
					"attributes":{
						"POSITION":22,
						"NORMAL":23,
						"TEXCOORD_0":24
					},
					"indices":25,
					"material":0
				}
			]
		},
		{
			"name":"RightAileron_Plane_0",
			"primitives":[
				{
					"attributes":{
						"POSITION":26,
						"NORMAL":27,
						"TEXCOORD_0":28
					},
					"indices":15,
					"material":0
				}
			]
		},
		{
			"name":"RightFlap_Plane_0",
			"primitives":[
				{
					"attributes":{
						"POSITION":29,
						"NORMAL":30,
						"TEXCOORD_0":31
					},
					"indices":15,
					"material":0
				}
			]
		},
		{
			"name":"RightWheel_Plane_0",
			"primitives":[
				{
					"attributes":{
						"POSITION":32,
						"NORMAL":33,
						"TEXCOORD_0":34
					},
					"indices":11,
					"material":0
				}
			]
		},
		{
			"name":"Rudder_Plane_0",
			"primitives":[
				{
					"attributes":{
						"POSITION":35,
						"NORMAL":36,
						"TEXCOORD_0":37
					},
					"indices":38,
					"material":0
				}
			]
		},
		{
			"name":"Stabilizer_Plane_0",
			"primitives":[
				{
					"attributes":{
						"POSITION":39,
						"NORMAL":40,
						"TEXCOORD_0":41
					},
					"indices":42,
					"material":0
				}
			]
		}
	],
	"textures":[
		{
			"sampler":0,
			"source":0
		}
	],
	"images":[
		{
			"bufferView":4,
			"mimeType":"image/png",
			"name":"Plane_baseColor"
		}
	],
	"accessors":[
		{
			"bufferView":0,
			"componentType":5126,
			"count":853,
			"max":[
				5.439730644226074,
				1.6499959230422974,
				3.9571025371551514
			],
			"min":[
				-5.521979331970215,
				-0.8389076590538025,
				-3.7499098777770996
			],
			"type":"VEC3"
		},
		{
			"bufferView":1,
			"componentType":5126,
			"count":853,
			"type":"VEC3"
		},
		{
			"bufferView":2,
			"componentType":5126,
			"count":853,
			"type":"VEC2"
		},
		{
			"bufferView":3,
			"componentType":5123,
			"count":2160,
			"type":"SCALAR"
		},
		{
			"bufferView":5,
			"componentType":5126,
			"count":108,
			"max":[
				0.6102719902992249,
				0.8764703869819641,
				0.10000000149011612
			],
			"min":[
				-2.884873867034912,
				0.10067600011825562,
				-2.60770320892334e-08
			],
			"type":"VEC3"
		},
		{
			"bufferView":6,
			"componentType":5126,
			"count":108,
			"type":"VEC3"
		},
		{
			"bufferView":7,
			"componentType":5126,
			"count":108,
			"type":"VEC2"
		},
		{
			"bufferView":8,
			"componentType":5123,
			"count":132,
			"type":"SCALAR"
		},
		{
			"bufferView":9,
			"componentType":5126,
			"count":176,
			"max":[
				0.19863812625408173,
				0.19863812625408173,
				0.06838157027959824
			],
			"min":[
				-0.19863812625408173,
				-0.19863812625408173,
				-0.02499806322157383
			],
			"type":"VEC3"
		},
		{
			"bufferView":10,
			"componentType":5126,
			"count":176,
			"type":"VEC3"
		},
		{
			"bufferView":11,
			"componentType":5126,
			"count":176,
			"type":"VEC2"
		},
		{
			"bufferView":12,
			"componentType":5123,
			"count":756,
			"type":"SCALAR"
		},
		{
			"bufferView":13,
			"componentType":5126,
			"count":14,
			"max":[
				5.468204498291016,
				1.0932804346084595,
				1.154590129852295
			],
			"min":[
				2.825302839279175,
				0.9770110845565796,
				0.41552653908729553
			],
			"type":"VEC3"
		},
		{
			"bufferView":14,
			"componentType":5126,
			"count":14,
			"type":"VEC3"
		},
		{
			"bufferView":15,
			"componentType":5126,
			"count":14,
			"type":"VEC2"
		},
		{
			"bufferView":16,
			"componentType":5123,
			"count":18,
			"type":"SCALAR"
		},
		{
			"bufferView":17,
			"componentType":5126,
			"count":14,
			"max":[
				2.853776693344116,
				1.0575261116027832,
				0.7643663883209229
			],
			"min":[
				0.6590204834938049,
				0.9770110845565796,
				0.41552647948265076
			],
			"type":"VEC3"
		},
		{
			"bufferView":18,
			"componentType":5126,
			"count":14,
			"type":"VEC3"
		},
		{
			"bufferView":19,
			"componentType":5126,
			"count":14,
			"type":"VEC2"
		},
		{
			"bufferView":20,
			"componentType":5126,
			"count":176,
			"max":[
				0.19863812625408173,
				0.19863812625408173,
				0.06838157027959824
			],
			"min":[
				-0.19863812625408173,
				-0.19863812625408173,
				-0.02499806322157383
			],
			"type":"VEC3"
		},
		{
			"bufferView":21,
			"componentType":5126,
			"count":176,
			"type":"VEC3"
		},
		{
			"bufferView":22,
			"componentType":5126,
			"count":176,
			"type":"VEC2"
		},
		{
			"bufferView":23,
			"componentType":5126,
			"count":124,
			"max":[
				0.23285293579101562,
				0.8586606383323669,
				-1.1660115718841553
			],
			"min":[
				-0.23285293579101562,
				-0.8992887735366821,
				-1.4879931211471558
			],
			"type":"VEC3"
		},
		{
			"bufferView":24,
			"componentType":5126,
			"count":124,
			"type":"VEC3"
		},
		{
			"bufferView":25,
			"componentType":5126,
			"count":124,
			"type":"VEC2"
		},
		{
			"bufferView":26,
			"componentType":5123,
			"count":246,
			"type":"SCALAR"
		},
		{
			"bufferView":27,
			"componentType":5126,
			"count":14,
			"max":[
				-2.907111644744873,
				1.093754768371582,
				1.142930507659912
			],
			"min":[
				-5.5496063232421875,
				0.9772956371307373,
				0.4084625840187073
			],
			"type":"VEC3"
		},
		{
			"bufferView":28,
			"componentType":5126,
			"count":14,
			"type":"VEC3"
		},
		{
			"bufferView":29,
			"componentType":5126,
			"count":14,
			"type":"VEC2"
		},
		{
			"bufferView":30,
			"componentType":5126,
			"count":14,
			"max":[
				-0.7409794926643372,
				1.0578107833862305,
				0.7643662691116333
			],
			"min":[
				-2.9347386360168457,
				0.9770110845565796,
				0.4084625840187073
			],
			"type":"VEC3"
		},
		{
			"bufferView":31,
			"componentType":5126,
			"count":14,
			"type":"VEC3"
		},
		{
			"bufferView":32,
			"componentType":5126,
			"count":14,
			"type":"VEC2"
		},
		{
			"bufferView":33,
			"componentType":5126,
			"count":176,
			"max":[
				0.19863812625408173,
				0.19863812625408173,
				0.06838157027959824
			],
			"min":[
				-0.19863812625408173,
				-0.19863812625408173,
				-0.02499806322157383
			],
			"type":"VEC3"
		},
		{
			"bufferView":34,
			"componentType":5126,
			"count":176,
			"type":"VEC3"
		},
		{
			"bufferView":35,
			"componentType":5126,
			"count":176,
			"type":"VEC2"
		},
		{
			"bufferView":36,
			"componentType":5126,
			"count":15,
			"max":[
				0.03369011729955673,
				1.6532992124557495,
				-3.126667022705078
			],
			"min":[
				-0.03369012847542763,
				0.35015228390693665,
				-4.106932163238525
			],
			"type":"VEC3"
		},
		{
			"bufferView":37,
			"componentType":5126,
			"count":15,
			"type":"VEC3"
		},
		{
			"bufferView":38,
			"componentType":5126,
			"count":15,
			"type":"VEC2"
		},
		{
			"bufferView":39,
			"componentType":5123,
			"count":15,
			"type":"SCALAR"
		},
		{
			"bufferView":40,
			"componentType":5126,
			"count":64,
			"max":[
				0.6039646863937378,
				0.31782984733581543,
				0.10000000149011612
			],
			"min":[
				-2.878566265106201,
				-0.5484986305236816,
				0
			],
			"type":"VEC3"
		},
		{
			"bufferView":41,
			"componentType":5126,
			"count":64,
			"type":"VEC3"
		},
		{
			"bufferView":42,
			"componentType":5126,
			"count":64,
			"type":"VEC2"
		},
		{
			"bufferView":43,
			"componentType":5123,
			"count":108,
			"type":"SCALAR"
		},
		{
			"bufferView":44,
			"componentType":5126,
			"count":50,
			"max":[
				2.0833333333333335
			],
			"min":[
				0.041666666666666664
			],
			"type":"SCALAR"
		},
		{
			"bufferView":45,
			"componentType":5126,
			"count":50,
			"type":"VEC4"
		},
		{
			"bufferView":46,
			"componentType":5126,
			"count":50,
			"type":"VEC4"
		}
	],
	"bufferViews":[
		{
			"buffer":0,
			"byteLength":10236,
			"byteOffset":0,
			"target":34962
		},
		{
			"buffer":0,
			"byteLength":10236,
			"byteOffset":10236,
			"target":34962
		},
		{
			"buffer":0,
			"byteLength":6824,
			"byteOffset":20472,
			"target":34962
		},
		{
			"buffer":0,
			"byteLength":4320,
			"byteOffset":27296,
			"target":34963
		},
		{
			"buffer":0,
			"byteLength":217198,
			"byteOffset":31616
		},
		{
			"buffer":0,
			"byteLength":1296,
			"byteOffset":248816,
			"target":34962
		},
		{
			"buffer":0,
			"byteLength":1296,
			"byteOffset":250112,
			"target":34962
		},
		{
			"buffer":0,
			"byteLength":864,
			"byteOffset":251408,
			"target":34962
		},
		{
			"buffer":0,
			"byteLength":264,
			"byteOffset":252272,
			"target":34963
		},
		{
			"buffer":0,
			"byteLength":2112,
			"byteOffset":252536,
			"target":34962
		},
		{
			"buffer":0,
			"byteLength":2112,
			"byteOffset":254648,
			"target":34962
		},
		{
			"buffer":0,
			"byteLength":1408,
			"byteOffset":256760,
			"target":34962
		},
		{
			"buffer":0,
			"byteLength":1512,
			"byteOffset":258168,
			"target":34963
		},
		{
			"buffer":0,
			"byteLength":168,
			"byteOffset":259680,
			"target":34962
		},
		{
			"buffer":0,
			"byteLength":168,
			"byteOffset":259848,
			"target":34962
		},
		{
			"buffer":0,
			"byteLength":112,
			"byteOffset":260016,
			"target":34962
		},
		{
			"buffer":0,
			"byteLength":36,
			"byteOffset":260128,
			"target":34963
		},
		{
			"buffer":0,
			"byteLength":168,
			"byteOffset":260164,
			"target":34962
		},
		{
			"buffer":0,
			"byteLength":168,
			"byteOffset":260332,
			"target":34962
		},
		{
			"buffer":0,
			"byteLength":112,
			"byteOffset":260500,
			"target":34962
		},
		{
			"buffer":0,
			"byteLength":2112,
			"byteOffset":260612,
			"target":34962
		},
		{
			"buffer":0,
			"byteLength":2112,
			"byteOffset":262724,
			"target":34962
		},
		{
			"buffer":0,
			"byteLength":1408,
			"byteOffset":264836,
			"target":34962
		},
		{
			"buffer":0,
			"byteLength":1488,
			"byteOffset":266244,
			"target":34962
		},
		{
			"buffer":0,
			"byteLength":1488,
			"byteOffset":267732,
			"target":34962
		},
		{
			"buffer":0,
			"byteLength":992,
			"byteOffset":269220,
			"target":34962
		},
		{
			"buffer":0,
			"byteLength":492,
			"byteOffset":270212,
			"target":34963
		},
		{
			"buffer":0,
			"byteLength":168,
			"byteOffset":270704,
			"target":34962
		},
		{
			"buffer":0,
			"byteLength":168,
			"byteOffset":270872,
			"target":34962
		},
		{
			"buffer":0,
			"byteLength":112,
			"byteOffset":271040,
			"target":34962
		},
		{
			"buffer":0,
			"byteLength":168,
			"byteOffset":271152,
			"target":34962
		},
		{
			"buffer":0,
			"byteLength":168,
			"byteOffset":271320,
			"target":34962
		},
		{
			"buffer":0,
			"byteLength":112,
			"byteOffset":271488,
			"target":34962
		},
		{
			"buffer":0,
			"byteLength":2112,
			"byteOffset":271600,
			"target":34962
		},
		{
			"buffer":0,
			"byteLength":2112,
			"byteOffset":273712,
			"target":34962
		},
		{
			"buffer":0,
			"byteLength":1408,
			"byteOffset":275824,
			"target":34962
		},
		{
			"buffer":0,
			"byteLength":180,
			"byteOffset":277232,
			"target":34962
		},
		{
			"buffer":0,
			"byteLength":180,
			"byteOffset":277412,
			"target":34962
		},
		{
			"buffer":0,
			"byteLength":120,
			"byteOffset":277592,
			"target":34962
		},
		{
			"buffer":0,
			"byteLength":30,
			"byteOffset":277712,
			"target":34963
		},
		{
			"buffer":0,
			"byteLength":768,
			"byteOffset":277744,
			"target":34962
		},
		{
			"buffer":0,
			"byteLength":768,
			"byteOffset":278512,
			"target":34962
		},
		{
			"buffer":0,
			"byteLength":512,
			"byteOffset":279280,
			"target":34962
		},
		{
			"buffer":0,
			"byteLength":216,
			"byteOffset":279792,
			"target":34963
		},
		{
			"buffer":0,
			"byteLength":200,
			"byteOffset":280008
		},
		{
			"buffer":0,
			"byteLength":800,
			"byteOffset":280208
		},
		{
			"buffer":0,
			"byteLength":800,
			"byteOffset":281008
		}
	],
	"samplers":[
		{
			"magFilter":9729,
			"minFilter":9987
		}
	],
	"buffers":[
		{
			"byteLength":281808,
			"uri":"data:application/octet-stream;base64,"
		}
	]
}
